<svg width="118" height="118" viewBox="0 0 118 118" fill="none" xmlns="http://www.w3.org/2000/svg">
<rect width="118" height="118" rx="59" fill="#0055FF"/>
<path d="M26.9648 79.3477C26.737 78.8464 26.5091 78.3678 26.2812 77.9121C26.0534 77.4564 25.8255 77.0462 25.5977 76.6816C25.0508 75.5879 24.5723 74.6081 24.1621 73.7422C23.752 72.8763 23.3646 71.8737 23 70.7344C23.1367 69.9596 23.3646 68.6608 23.6836 66.8379C24.0482 65.015 24.4583 63.0326 24.9141 60.8906C25.3698 58.7031 25.8483 56.4928 26.3496 54.2598C26.8965 52.0267 27.4434 50.1126 27.9902 48.5176C28.4915 47.1048 29.0384 45.6009 29.6309 44.0059C30.2689 42.4108 30.9525 40.9525 31.6816 39.6309C32.4564 38.2637 33.2767 37.1016 34.1426 36.1445C35.0085 35.1875 35.9427 34.6178 36.9453 34.4355C37.2188 34.8001 37.515 35.0964 37.834 35.3242C38.153 35.5065 38.4492 35.6432 38.7227 35.7344C39.4974 36.8281 40.2493 37.7624 40.9785 38.5371C41.7077 39.2663 42.5736 39.9954 43.5762 40.7246C43.3027 42.0918 42.8926 43.6185 42.3457 45.3047C41.8444 46.9453 41.2975 48.6087 40.7051 50.2949C40.1582 51.9811 39.6113 53.6217 39.0645 55.2168C38.5176 56.7663 38.0846 58.1107 37.7656 59.25C37.4922 60.1615 37.2188 61.2096 36.9453 62.3945C36.7174 63.3971 36.4668 64.6048 36.1934 66.0176C35.9655 67.4303 35.7376 68.9798 35.5098 70.666C36.1478 70.4837 36.8542 70.1191 37.6289 69.5723C38.4492 69.0254 39.2012 68.4557 39.8848 67.8633C40.7051 67.1797 41.5026 66.4505 42.2773 65.6758C43.3255 64.6276 44.2142 63.6706 44.9434 62.8047C45.6725 61.9388 46.3333 61.0501 46.9258 60.1387C47.5638 59.1816 48.2018 58.1562 48.8398 57.0625C49.5234 55.9232 50.321 54.5788 51.2324 53.0293C52.0527 51.7077 52.8958 50.2949 53.7617 48.791C54.6732 47.2871 55.5846 45.8516 56.4961 44.4844C57.4076 43.1172 58.2962 41.8639 59.1621 40.7246C60.028 39.5397 60.8255 38.6283 61.5547 37.9902C62.056 38.4915 62.6257 39.0156 63.2637 39.5625C63.9473 40.1094 64.6764 40.4967 65.4512 40.7246C65.7702 41.2259 66.0664 41.6816 66.3398 42.0918C66.6589 42.4564 66.9551 42.821 67.2285 43.1855C67.5931 43.6868 67.9121 44.1426 68.1855 44.5527C68.5046 44.9629 68.778 45.4186 69.0059 45.9199C68.9603 46.2845 68.8691 46.763 68.7324 47.3555C68.6413 47.9479 68.5273 48.6087 68.3906 49.3379C68.2539 50.0215 68.0944 50.7279 67.9121 51.457C67.7754 52.1862 67.6387 52.8926 67.502 53.5762C67.0462 55.627 66.7044 57.1764 66.4766 58.2246C66.2487 59.2728 66.0892 60.0931 65.998 60.6855C65.9069 61.278 65.8385 61.7793 65.793 62.1895C65.793 62.5996 65.793 63.1693 65.793 63.8984C65.793 64.4453 65.8385 64.9922 65.9297 65.5391C66.0208 66.0404 66.112 66.5645 66.2031 67.1113C66.3398 67.6126 66.5677 68.0911 66.8867 68.5469L70.168 66.0176C71.0794 65.334 71.9453 64.377 72.7656 63.1465C73.6315 61.8704 74.4518 60.4349 75.2266 58.8398C76.0469 57.1992 76.8444 55.4447 77.6191 53.5762C78.3939 51.6621 79.1686 49.7025 79.9434 47.6973C80.4902 46.2389 81.0371 44.8034 81.584 43.3906C82.1764 41.9323 82.7689 40.5651 83.3613 39.2891C83.9538 37.9674 84.5234 36.7826 85.0703 35.7344C85.6628 34.6406 86.2324 33.7292 86.7793 33C88.0098 33.7747 89.0579 34.5495 89.9238 35.3242C90.8353 36.099 91.61 36.9648 92.248 37.9219C92.9316 38.8333 93.4557 39.9043 93.8203 41.1348C94.2305 42.3197 94.5267 43.7324 94.709 45.373C93.7064 47.2871 92.7721 49.2467 91.9062 51.252C91.0404 53.2572 90.1745 55.2852 89.3086 57.3359C88.2148 59.9792 87.0755 62.6224 85.8906 65.2656C84.7513 67.8633 83.4753 70.347 82.0625 72.7168C80.6497 75.0866 79.0547 77.2741 77.2773 79.2793C75.5456 81.2389 73.5404 82.9023 71.2617 84.2695C70.6237 84.1328 70.0768 84.0645 69.6211 84.0645C69.1198 84.0645 68.6868 84.1328 68.3223 84.2695C68.0033 84.4062 67.707 84.5885 67.4336 84.8164C65.5651 83.9505 64.0612 82.6745 62.9219 80.9883C61.7826 79.2565 60.666 77.3424 59.5723 75.2461C59.4355 74.9271 59.276 74.6309 59.0938 74.3574C58.957 74.0384 58.7975 73.7194 58.6152 73.4004L57.4531 71.2812L56.7695 69.9824L55.8125 70.8711L54.377 72.1699L53.5566 72.9902C52.1439 74.3118 50.7083 75.6107 49.25 76.8867C47.7917 78.1172 46.265 79.2565 44.6699 80.3047C43.0749 81.3073 41.3659 82.1276 39.543 82.7656C37.7656 83.4036 35.8516 83.7454 33.8008 83.791C33.4362 83.6087 33.0944 83.4492 32.7754 83.3125C32.502 83.1758 32.2285 83.0391 31.9551 82.9023C30.9069 82.401 30.041 81.9225 29.3574 81.4668C28.6738 81.0111 27.8763 80.3047 26.9648 79.3477Z" fill="white"/>
</svg>
